<svg xmlns="http://www.w3.org/2000/svg" height="1496" width="1496" xml:space="preserve"><path style="fill:#fff;fill-opacity:1;fill-rule:nonzero;stroke:none" d="M11220 0H0v11220h11220V0" transform="matrix(.13333 0 0 -.13333 0 1496)"/><path style="fill:#88adb6;fill-opacity:1;fill-rule:nonzero;stroke:none" d="M2612.57 6542.14c133.27 43.29 422.37 75.06 520.93 169.23 2.06 2.02 68.94 189.56 89.23 229.21 105.25 205.82 259.2 395.97 413.95 565.93 220.84 242.61 237.24 286.79 266.93 603.17 7.2 76.74 245.62-15.61 271.53-45.46 34.66-39.94 69.34-79.88 104.01-119.82 1251.89-1308.88 2503.78-2617.75 3755.72-3926.57 156.17-163.32 349.63-322.54 483.29-505.31 267.19-365.34-323.81-517.42-603.6-346.38-174.55 106.68-306.48 338.1-433.31 492.65-85.15 103.77-377.4 598.89-508.07 618.19 73.15-10.78-81.16-121.99-96.08-130.71-90.67-52.7-220.99-79.29-320.03-108.65-289.74-85.94-588-147.2-888.08-183.8-627.84-76.53-1329.75-43.19-1862.94 333.13-733.97 517.97-1095.72 1268.49-813.12 2126.28-105.05 44.32-210.15 88.6-315.2 132.88-22.55 9.51-145 70.13-65.16 96.03" transform="matrix(.13333 0 0 -.13333 0 1496)"/><path style="fill:#000;fill-opacity:1;fill-rule:nonzero;stroke:none" d="M4234.43 3228.3c50.24 67.91 194 263.83 314.71 256.39 81.81 160.02 163.61 320.03 245.36 479.99 17.04 33.25 98.31 2.32 78.12-37.28-82.35-160.95-164.65-321.95-246.95-482.95 5.18-5.71 10.39-10.83 15.28-17.97 50.23-73.29 43.63-189.17 35.36-273.74-2.91-29.64-88.56-10.93-85.26 22.76 5.96 60.82 6.16 126.33-7.49 186.61-36.88-72.2-73.82-144.45-110.71-216.65-16.99-33.25-98.35-2.27-78.1 37.33 38.7 75.65 77.36 151.35 116.07 226.99-81.06-48.16-144.49-143.91-197.44-215.42-17.98-24.33-100.32 5.07-78.95 33.94m-531.61 485.41c87.77 36.39 192.28 83.03 290.24 73.43 16-1.58 31.62-6.4 46.34-12.86 120.67 72.55 241.32 145.14 361.99 217.74 29.65 17.83 105.74-23.1 66.3-46.84-125.55-75.5-251.14-151.05-376.72-226.6 1.52-5.32 4.43-9.75 4.77-15.76 4.14-65.85-48.5-138.49-87.47-187.94-21.77-27.63-103.42 4.24-78.4 36 25.95 32.95 51.81 70.98 67.28 111.26-46.54-27.97-93.09-55.95-139.63-83.92-29.65-17.83-105.74 23.05-66.29 46.78 56.53 33.99 113.08 68.02 169.62 102.05-71.47-8.57-143.76-40.23-207.74-66.73-32.65-13.49-99.15 33.14-50.29 53.39" transform="matrix(.13333 0 0 -.13333 0 1496)"/><path style="fill:#b3c9cd;fill-opacity:1;fill-rule:nonzero;stroke:none" d="M5322.67 6679.9c35.02 22.46 102.19 13.74 158.87-9.31 28.32-7.93 53.25-19.6 68.36-35.02 617.4-630.45 1234.86-1260.95 1852.31-1891.4 43.09-43.98 31.41-89.15-28.71-106.68-780.97-227.58-1912.88-456.99-2512.76 277.38-523.47 640.84-167.94 1361.38 461.93 1765.03" transform="matrix(.13333 0 0 -.13333 0 1496)"/><path style="fill:#000;fill-opacity:1;fill-rule:nonzero;stroke:none" d="M3800.15 7033.32c35.94 0 65.1-83.68 65.1-186.96 0-103.23-29.16-186.95-65.1-186.95-35.96 0-65.11 83.72-65.11 186.95 0 103.28 29.15 186.96 65.11 186.96" transform="matrix(.13333 0 0 -.13333 0 1496)"/></svg>