<?xml version="1.0" ?><svg fill="none" height="24" viewBox="0 0 24 24" width="24" xmlns="http://www.w3.org/2000/svg"><path clip-rule="evenodd" d="M12.6464 19.3536C12.4512 19.1583 12.4512 18.8417 12.6464 18.6464L19.2929 12L12.6464 5.35355C12.4512 5.15829 12.4512 4.84171 12.6464 4.64645C12.8417 4.45118 13.1583 4.45118 13.3536 4.64645L20.3536 11.6464C20.5488 11.8417 20.5488 12.1583 20.3536 12.3536L13.3536 19.3536C13.1583 19.5488 12.8417 19.5488 12.6464 19.3536Z" fill="black" fill-rule="evenodd"/><path clip-rule="evenodd" d="M3.5 12C3.5 11.7239 3.72386 11.5 4 11.5L20 11.5C20.2761 11.5 20.5 11.7239 20.5 12C20.5 12.2761 20.2761 12.5 20 12.5L4 12.5C3.72386 12.5 3.5 12.2761 3.5 12Z" fill="black" fill-rule="evenodd"/></svg>