<svg width="0" height="0" class="hidden">
  <symbol fill="none" xmlns="http://www.w3.org/2000/svg" viewBox="0 0 126 73" id="monkey">
    <path d="M45.1731 50.0545C44.9929 49.7136 44.8127 49.4296 44.6926 49.0887C43.8517 47.1572 43.8517 45.6802 44.152 43.8055C44.3923 42.4421 44.3322 41.7604 43.9117 41.2491C43.4312 40.6811 42.7104 40.6242 41.6893 40.5106H41.5091C41.2087 40.4538 40.9084 40.4538 40.6681 40.4538C38.3255 40.3402 37.0041 40.397 36.4034 41.2491C35.8027 42.0445 36.2232 43.2374 37.0641 44.9417C37.4846 45.7938 37.6648 46.646 37.7849 47.2709C36.7638 47.3277 35.5625 47.7821 34.1209 48.3502C31.1776 49.4864 27.1531 51.077 22.2277 49.6568C16.4012 48.0094 11.5358 43.6351 8.89287 41.2491C7.63147 40.113 7.09087 39.6017 6.67041 39.4881C6.06974 39.3176 5.28887 39.7153 4.86841 39.9425L4.62814 40.0562C4.32781 40.2834 3.90734 40.6242 3.72714 41.0219C3.30667 42.3285 3.24661 44.7713 4.26774 47.4981C3.90734 47.3277 3.66707 47.2709 3.42681 47.214C2.82614 47.1572 2.16541 47.6117 1.62481 48.123L1.44461 48.2934C1.14427 48.5775 0.783875 49.0319 0.783875 49.4864C0.663742 51.5883 1.74494 54.8832 4.32781 57.9509H4.26774C3.66707 58.0645 3.12647 58.7462 2.76607 59.3711V59.5983C2.58587 59.996 2.40567 60.5073 2.46574 60.9617C3.06641 63.2909 5.52914 66.6426 9.67374 68.9718C12.1965 70.392 16.0408 71.7554 21.3267 71.7554C23.6693 71.7554 26.3122 71.4713 29.1954 70.7896C36.043 69.199 42.4101 64.5975 44.9929 59.2007C46.6147 56.0194 46.6748 52.8381 45.1731 50.0545ZM4.80834 41.3059C4.80834 41.3059 4.86841 41.2491 4.86841 41.1923C4.98854 41.4196 5.16874 41.7036 5.34894 41.9877C6.91067 44.6577 10.3345 50.6794 18.3834 53.6902C13.3979 52.4972 8.95294 50.0545 6.31001 48.5775C6.12981 48.4638 5.94961 48.3502 5.76941 48.2934C4.50801 45.5098 4.32781 42.783 4.80834 41.3059ZM1.92514 49.6C1.92514 49.6 1.92514 49.4864 2.04527 49.3728C2.22547 49.5432 2.52581 49.8841 2.82614 50.1681C5.34894 52.8381 11.2955 59.1439 22.1676 59.7688C22.528 59.7688 22.8283 59.7688 23.1887 59.7688C24.2699 59.7688 25.4112 59.6551 26.4323 59.4279C26.3122 59.4847 26.132 59.4847 26.0119 59.5415C19.2243 61.0754 11.716 59.3711 7.69154 58.4622C7.03081 58.2917 6.49021 58.1781 6.06974 58.1213C3.00634 55.1104 1.80501 51.5883 1.92514 49.6ZM44.0319 58.8598C41.5691 63.9158 35.5625 68.3469 29.0152 69.8239C12.3167 73.6301 4.50801 64.4839 3.54694 60.7345C3.54694 60.6777 3.54694 60.6209 3.60701 60.4505C3.90734 60.5641 4.26774 60.7913 4.62814 61.0185C8.05194 63.0068 16.0408 67.6083 27.1531 65.052C34.4813 63.4045 38.2054 58.0645 40.3678 54.1447C40.4879 53.9175 40.4279 53.5766 40.1275 53.463C39.8873 53.3494 39.5269 53.4062 39.4067 53.6902C37.3645 57.3828 33.7605 62.4956 26.8528 64.0862C16.1609 66.529 8.47241 62.0411 5.16874 60.1664C4.68821 59.8824 4.32781 59.6551 4.02747 59.5415C4.26774 59.2007 4.50801 58.9734 4.62814 58.9734C4.92847 58.9166 6.18987 59.2007 7.39121 59.4847C10.2744 60.1664 14.9596 61.189 19.9451 61.189C21.9874 61.189 24.1498 61.0185 26.1921 60.5073C31.4779 59.3143 34.6014 56.3034 37.1242 53.2358C37.3044 53.0085 37.2443 52.6677 37.0041 52.4972C36.7638 52.3268 36.4034 52.3836 36.2232 52.6109C35.9829 52.8949 35.6826 53.2358 35.4423 53.5198C31.1776 57.2692 26.7927 58.9734 22.1075 58.6894C11.716 58.1213 5.94961 52.0428 3.48687 49.4296C3.12647 49.0319 2.88621 48.8047 2.64594 48.5775C2.94627 48.3502 3.18654 48.2366 3.30667 48.2366C3.60701 48.2934 4.62814 48.8615 5.64927 49.4296C9.13314 51.3611 15.6203 54.94 22.4679 55.3377C22.8283 55.3377 23.1287 55.3377 23.4891 55.3377C25.8917 55.3377 27.934 54.8832 29.736 54.1447H29.7961C29.8561 54.1447 29.8561 54.0879 29.9162 54.0879C32.1987 53.179 34.0007 51.9292 35.5625 50.9066C36.1031 50.5658 36.5836 50.2249 37.0041 49.9409C37.2443 49.7704 37.3044 49.4864 37.1843 49.2592C37.0041 49.0319 36.7037 48.9751 36.4635 49.0887C35.9829 49.3728 35.5024 49.7136 34.9618 50.0545C33.4001 51.077 31.5981 52.3268 29.3155 53.179C26.3723 54.0311 23.4891 54.0879 20.726 53.2926C11.5959 50.7362 7.87174 44.2032 6.24994 41.4196C6.00968 41.0219 5.88954 40.7379 5.70934 40.5106C6.00967 40.397 6.18987 40.3402 6.31001 40.3402C6.55027 40.4538 7.33114 41.1355 8.11201 41.874C10.7549 44.26 15.7405 48.7479 21.8072 50.4521C23.3089 50.8498 24.7505 51.0202 26.0719 51.0202C29.4357 51.0202 32.1987 49.9409 34.4212 49.0887C35.9829 48.4638 37.3044 47.9526 38.2054 48.123H38.2655H38.3255C38.3255 48.123 38.3255 48.123 38.3856 48.123C38.4457 48.123 38.4457 48.123 38.5057 48.0662C38.5057 48.0662 38.5658 48.0662 38.5658 48.0094C38.6259 48.0094 38.6259 47.9526 38.6859 47.9526L38.746 47.8958C38.746 47.8958 38.8061 47.8389 38.8061 47.7821C38.8061 47.7253 38.8061 47.7253 38.8661 47.6685C38.8661 47.6685 38.8661 47.6685 38.8661 47.6117V47.5549V47.4981C38.8061 46.8164 38.6259 45.453 38.0252 44.2032C37.7249 43.5783 36.944 41.9877 37.3044 41.5332C37.6047 41.0787 39.2265 41.1355 40.6681 41.1923C40.9084 41.1923 41.1487 41.1923 41.3889 41.2491H41.5691C42.35 41.3059 42.8906 41.4196 43.0708 41.59C43.251 41.8172 43.251 42.3853 43.1309 43.3511C42.7705 45.3394 42.7705 47.0436 43.7315 49.2023C43.8517 49.5432 44.0319 49.8841 44.2121 50.2249C45.5335 53.0085 45.4735 55.849 44.0319 58.8598Z" fill="#333B41" stroke="#333B41" stroke-width="0.7"></path>
    <path d="M42.4714 57.8937C42.2312 57.7801 41.8708 57.8937 41.7506 58.1209C39.4681 62.7792 33.8819 66.8695 27.8152 68.2329C27.5148 68.2897 27.3346 68.5737 27.3947 68.8578C27.4548 69.085 27.695 69.2554 27.9353 69.2554C27.9954 69.2554 27.9954 69.2554 28.0554 69.2554C34.4826 67.8352 40.3691 63.5177 42.7718 58.5754C42.8919 58.3482 42.7718 58.0641 42.4714 57.8937Z" fill="#333B41" stroke="#333B41" stroke-width="0.7"></path>
    <path d="M68.4004 1.00768C65.2033 0.905391 62.0568 1.8276 59.4168 3.64074C56.7768 5.45388 54.7804 8.06379 53.7167 11.0923C53.6668 11.2345 53.5798 11.3607 53.4647 11.4576C53.3497 11.5545 53.2108 11.6186 53.0626 11.6433C51.4417 11.9186 49.972 12.7659 48.918 14.0324C47.864 15.299 47.295 16.9018 47.3134 18.552C47.3318 20.2023 47.9365 21.7917 49.0185 23.0342C50.1005 24.2767 51.5888 25.0909 53.2154 25.3297C53.3775 25.3535 53.5292 25.4244 53.6516 25.5337C53.774 25.643 53.8619 25.7858 53.9043 25.9447C54.7001 28.9208 56.4152 31.5671 58.8031 33.5033C61.1909 35.4395 64.1287 36.5659 67.1942 36.7209C66.5251 39.1745 66.1195 41.693 65.9845 44.2333L60.924 43.4302C59.8571 43.2608 58.767 43.5238 57.8932 44.1613C57.0195 44.7988 56.4338 45.7585 56.265 46.8296C56.0962 47.9006 56.3581 48.995 56.993 49.8722C57.628 50.7494 58.584 51.3373 59.6508 51.5068L66.5244 52.5969C66.7194 53.6657 66.9631 54.7249 67.2545 55.7714C65.6904 57.4792 64.8224 59.7146 64.8226 62.0346V63.4815C64.8224 63.7046 64.7341 63.9186 64.5769 64.0763C64.4198 64.2341 64.2067 64.3227 63.9845 64.3229H63.4828C62.8881 64.3225 62.299 64.44 61.7494 64.6682C61.1998 64.8965 60.7004 65.2312 60.2796 65.6533C59.8589 66.0754 59.5252 66.5766 59.2974 67.1282C59.0697 67.6798 58.9524 68.2711 58.9524 68.8682V70.0537C58.9524 70.3888 59.0183 70.7206 59.1461 71.0302C59.274 71.3397 59.4613 71.6208 59.6975 71.8576C59.9337 72.0944 60.214 72.2822 60.5225 72.4102C60.831 72.5382 61.1615 72.6038 61.4953 72.6035H93.6979C98.0269 72.604 102.307 71.6861 106.258 69.9097C110.209 68.1333 113.741 65.5386 116.623 62.2957C121.185 57.704 124.233 51.8179 125.357 45.4318C126.047 39.885 124.548 34.2873 121.179 29.8364C118.549 26.4476 114.975 23.9195 110.912 22.5725C108.105 21.7241 105.102 21.7963 102.339 22.7788C99.5763 23.7613 97.1976 25.6028 95.5487 28.0356C95.2353 28.4967 95.0156 29.0152 94.902 29.5616C94.7884 30.108 94.7832 30.6713 94.8867 31.2197C94.9902 31.7681 95.2004 32.2906 95.5052 32.7574C95.81 33.2241 96.2035 33.6261 96.6632 33.94C97.1228 34.254 97.6396 34.4738 98.184 34.5871C98.7283 34.7004 99.2896 34.7049 99.8357 34.6003C100.382 34.4957 100.902 34.2839 101.367 33.9773C101.831 33.6707 102.231 33.2752 102.543 32.8134C103.17 31.8884 104.071 31.1847 105.118 30.8015C106.165 30.4183 107.305 30.3751 108.378 30.678C110.785 31.5014 112.903 33.0083 114.474 35.0159C116.442 37.637 117.342 40.9127 116.988 44.1761C116.118 48.8459 113.841 53.1347 110.464 56.463C107.233 60.1776 102.868 62.715 98.0505 63.6793C98.0109 63.687 97.9699 63.6847 97.9314 63.6725C97.8929 63.6603 97.858 63.6386 97.83 63.6095C97.8019 63.5803 97.7815 63.5446 97.7707 63.5056C97.7599 63.4665 97.759 63.4253 97.768 63.3858C99.2535 57.132 98.8309 50.5742 96.5552 44.5647C95.3896 40.7952 93.4443 37.3154 90.8466 34.3527C88.249 31.39 85.0575 29.0115 81.4809 27.3725C81.6587 26.9048 81.8124 26.4281 81.9413 25.9445C81.9837 25.7856 82.0716 25.6428 82.1941 25.5335C82.3165 25.4242 82.4682 25.3533 82.6303 25.3295C84.2569 25.0903 85.745 24.276 86.8266 23.0332C87.9083 21.7904 88.5126 20.2007 88.5306 18.5504C88.5486 16.9001 87.9793 15.2977 86.925 14.0314C85.8707 12.7651 84.4008 11.9181 82.7799 11.6431C82.6317 11.6184 82.4928 11.5543 82.3778 11.4574C82.2627 11.3605 82.1757 11.2343 82.1258 11.0921C81.1166 8.21857 79.2662 5.71834 76.8171 3.9188C74.368 2.11927 71.4338 1.10461 68.4004 1.00768ZM67.4574 2.11355C70.421 2.01807 73.338 2.87269 75.7852 4.55356C78.2324 6.23443 80.0827 8.65423 81.0679 11.4619C81.1835 11.7905 81.3846 12.082 81.6503 12.3062C81.9161 12.5304 82.2368 12.6791 82.5791 12.7368C83.9399 12.9681 85.1737 13.6794 86.0587 14.7425C86.9437 15.8057 87.4217 17.151 87.4068 18.5364C87.3919 19.9218 86.8851 21.2565 85.9775 22.3002C85.0698 23.344 83.821 24.0284 82.4556 24.2302C82.0799 24.2852 81.7285 24.4494 81.4447 24.7026C81.1609 24.9558 80.9572 25.2868 80.8587 25.6549C80.4389 27.2271 79.7386 28.7098 78.7918 30.0311C78.92 27.4422 78.0269 24.9069 76.3059 22.9745C76.2864 22.948 76.2724 22.9177 76.2648 22.8856C76.2572 22.8535 76.2562 22.8203 76.2618 22.7878C76.2674 22.7554 76.2796 22.7243 76.2975 22.6967C76.3154 22.669 76.3387 22.6454 76.3661 22.6271C77.7327 21.4524 78.6095 19.8048 78.8225 18.0114C79.0356 16.2179 78.5693 14.4095 77.5162 12.9451C76.4632 11.4806 74.9002 10.4673 73.1375 10.1058C71.3748 9.74425 69.5411 10.0611 68.0003 10.9935C67.777 11.1284 67.5212 11.1997 67.2605 11.1997C66.9999 11.1997 66.7441 11.1284 66.5208 10.9935H66.5045C64.9637 10.0648 63.1318 9.75074 61.3713 10.1136C59.6109 10.4765 58.0504 11.4899 56.9987 12.9529C55.9471 14.4159 55.481 16.222 55.6927 18.0136C55.9044 19.8052 56.7786 21.4517 58.142 22.6271C58.165 22.6497 58.1833 22.6767 58.1957 22.7065C58.2082 22.7364 58.2146 22.7685 58.2146 22.8008C58.2146 22.8331 58.2082 22.865 58.1957 22.8949C58.1833 22.9247 58.165 22.9519 58.142 22.9745C56.9052 24.3661 56.0872 26.0814 55.7831 27.9212C55.4387 27.1923 55.1604 26.4338 54.9513 25.6549C54.853 25.2873 54.6498 24.9566 54.3666 24.7034C54.0834 24.4503 53.7327 24.2858 53.3576 24.2302C51.9922 24.0284 50.7434 23.344 49.8358 22.3002C48.9281 21.2565 48.4213 19.9218 48.4064 18.5364C48.3915 17.151 48.8695 15.8057 49.7545 14.7425C50.6395 13.6794 51.8734 12.9681 53.2341 12.7368C53.5758 12.6785 53.8959 12.5298 54.161 12.3056C54.4262 12.0814 54.6268 11.7901 54.7421 11.4619C55.6765 8.79894 57.3905 6.48146 59.6594 4.8133C61.9284 3.14515 64.6465 2.2041 67.4574 2.11355ZM62.5903 11.0698C62.7458 11.0638 62.9015 11.0638 63.057 11.0698C64.0722 11.1137 65.0602 11.413 65.9302 11.9401C66.3256 12.1789 66.7784 12.305 67.2398 12.305C67.7013 12.305 68.154 12.1789 68.5494 11.9401C69.8529 11.1551 71.4025 10.89 72.8914 11.1975C74.3803 11.5049 75.6999 12.3623 76.589 13.6C77.4782 14.8377 77.872 16.3655 77.6925 17.8809C77.513 19.3962 76.7733 20.7887 75.6198 21.7826C75.4843 21.9003 75.3735 22.0438 75.2939 22.205C75.2143 22.3661 75.1676 22.5418 75.1564 22.7214C75.1452 22.9009 75.1698 23.0808 75.2287 23.2507C75.2876 23.4206 75.3797 23.577 75.4995 23.7107C76.4431 24.7702 77.1152 26.0445 77.4576 27.4235C77.8001 28.8025 77.8025 30.2446 77.4648 31.6247C76.0663 33.0463 74.3701 34.1377 72.4994 34.8195C70.6287 35.5013 68.6302 35.7566 66.649 35.5668C64.6678 35.377 62.7535 34.7468 61.045 33.7221C59.3365 32.6974 57.8765 31.3037 56.7711 29.6423C56.7452 27.4565 57.5359 25.3403 58.9871 23.7107C59.1064 23.5764 59.1978 23.4195 59.2559 23.2493C59.314 23.079 59.3377 22.8987 59.3256 22.7191C59.3135 22.5395 59.2658 22.3643 59.1854 22.2035C59.1049 22.0427 58.9933 21.8996 58.8571 21.7826C57.9276 20.9856 57.2597 19.9251 56.941 18.7404C56.6222 17.5557 56.6674 16.3019 57.0707 15.1434C57.474 13.985 58.2165 12.9758 59.201 12.2484C60.1854 11.5209 61.3659 11.109 62.5875 11.0668L62.5903 11.0698ZM106.835 23.0955C108.104 23.0845 109.368 23.265 110.584 23.6311C114.43 24.9112 117.812 27.3068 120.303 30.5156C123.489 34.7258 124.912 40.0187 124.268 45.2665C123.177 51.4294 120.228 57.1077 115.82 61.5344C113.041 64.6672 109.634 67.1742 105.822 68.8909C102.01 70.6075 97.8788 71.4949 93.7006 71.4947H61.4983C61.3095 71.4951 61.1226 71.4582 60.9481 71.386C60.7736 71.3138 60.615 71.2076 60.4814 71.0738C60.3478 70.94 60.2418 70.7812 60.1695 70.6062C60.0972 70.4312 60.06 70.2434 60.06 70.054V68.8684C60.06 68.4169 60.1486 67.9699 60.3208 67.5528C60.493 67.1357 60.7454 66.757 61.0635 66.4379C61.3817 66.1188 61.7593 65.8657 62.1749 65.6932C62.5905 65.5207 63.0359 65.4321 63.4856 65.4325H63.9873C64.2426 65.4327 64.4956 65.3826 64.7316 65.2847C64.9677 65.1868 65.1822 65.0433 65.3629 64.8621C65.5437 64.681 65.6871 64.4658 65.785 64.229C65.8829 63.9922 65.9333 63.7383 65.9335 63.4819V62.035C65.9829 59.9089 66.8588 57.8866 68.3741 56.4004C69.8893 54.9143 71.9236 54.0823 74.042 54.0823C76.1603 54.0823 78.1946 54.9143 79.7099 56.4004C81.2252 57.8866 82.1011 59.9089 82.1505 62.035V64.5114C82.1548 64.6556 82.2148 64.7925 82.318 64.893C82.4211 64.9935 82.5592 65.0496 82.7029 65.0496C82.8467 65.0496 82.9847 64.9935 83.0879 64.893C83.191 64.7925 83.2511 64.6556 83.2554 64.5114V62.035C83.2558 60.4145 82.8323 58.8221 82.0272 57.4176C81.2221 56.013 80.0637 54.8455 78.6678 54.0316C79.5179 53.8303 80.319 53.4595 81.0234 52.9412C81.7279 52.4229 82.3214 51.7677 82.7686 51.0145C83.2158 50.2614 83.5077 49.4256 83.6267 48.557C83.7458 47.6884 83.6897 46.8046 83.4618 45.9581C82.8714 43.7654 82.0542 41.6405 81.0235 39.6184C80.9565 39.4874 80.8404 39.3885 80.7008 39.3434C80.5611 39.2984 80.4093 39.3108 80.2788 39.378C80.1483 39.4453 80.0498 39.5618 80.0048 39.702C79.9599 39.8422 79.9723 39.9947 80.0393 40.1258C81.0339 42.0788 81.8224 44.1307 82.3919 46.2483C82.6273 47.1227 82.6411 48.0424 82.4322 48.9236C82.2232 49.8047 81.798 50.6195 81.1953 51.2936C80.5927 51.9677 79.8316 52.4797 78.9815 52.7831C78.1314 53.0866 77.2192 53.1718 76.3279 53.0309L59.8282 50.411C59.0533 50.2851 58.3598 49.8558 57.8994 49.2175C57.4391 48.5792 57.2495 47.7839 57.3721 47.0055C57.4947 46.2272 57.9196 45.5293 58.5537 45.0648C59.1878 44.6003 59.9795 44.407 60.7552 44.5272L73.4579 46.5449C73.602 46.5663 73.7488 46.5297 73.8662 46.443C73.9837 46.3563 74.0622 46.2266 74.0848 46.082C74.1075 45.9375 74.0723 45.7898 73.987 45.6712C73.9017 45.5525 73.7731 45.4725 73.6293 45.4485L67.086 44.4095C67.2147 41.8119 67.6354 39.2371 68.3401 36.7343C71.0189 36.6572 73.6242 35.8371 75.8674 34.3648C78.1105 32.8926 79.9039 30.8257 81.0489 28.3932C84.4835 29.971 87.5475 32.2594 90.0401 35.1085C92.5328 37.9575 94.3979 41.3029 95.5134 44.9257C97.7206 50.7362 98.1321 57.0795 96.6945 63.1283C96.6419 63.3491 96.6455 63.5797 96.705 63.7986C96.7644 64.0176 96.8778 64.2181 97.0346 64.3815C97.1915 64.545 97.3868 64.6663 97.6025 64.7341C97.8183 64.8019 98.0476 64.8142 98.2693 64.7697C103.313 63.7603 107.884 61.1086 111.273 57.2256C114.804 53.7315 117.181 49.2332 118.083 44.3391C118.48 40.7784 117.503 37.2006 115.353 34.3408C113.643 32.1508 111.334 30.5091 108.708 29.617C107.409 29.2446 106.027 29.2929 104.757 29.7547C103.487 30.2164 102.395 31.0684 101.635 32.1893C101.404 32.5301 101.108 32.8217 100.765 33.0478C100.422 33.2739 100.037 33.43 99.6339 33.507C99.2306 33.584 98.8161 33.5803 98.4142 33.4965C98.0122 33.4126 97.6306 33.2501 97.2912 33.0182C96.9518 32.7863 96.6612 32.4895 96.4361 32.1449C96.2109 31.8002 96.0556 31.4145 95.979 31.0096C95.9023 30.6046 95.9059 30.1885 95.9895 29.7849C96.073 29.3814 96.2349 28.9983 96.466 28.6576C97.6182 26.9586 99.1633 25.5652 100.969 24.5966C102.775 23.628 104.788 23.1127 106.835 23.0955ZM67.6892 52.7819L70.9879 53.3047C69.9625 53.6671 69.0091 54.2088 68.1717 54.9047C67.9897 54.2024 67.8298 53.4944 67.6923 52.7819H67.6892Z" fill="#333B41" stroke="#333B41" stroke-width="0.7"></path>
    <path d="M71.8428 14.6308C71.2242 14.6419 70.635 14.8981 70.2038 15.3435C69.7726 15.789 69.5343 16.3875 69.5409 17.0086C69.5409 17.6329 69.7879 18.2315 70.2276 18.6729C70.6673 19.1143 71.2637 19.3624 71.8856 19.3624C72.5074 19.3624 73.1038 19.1143 73.5435 18.6729C73.9832 18.2315 74.2302 17.6329 74.2302 17.0086C74.2336 16.6938 74.1739 16.3815 74.0549 16.0903C73.9359 15.799 73.7598 15.5346 73.5372 15.3129C73.3146 15.0911 73.0499 14.9165 72.7589 14.7993C72.4678 14.6822 72.1563 14.6249 71.8428 14.6308ZM71.8623 15.7527C72.0281 15.7494 72.1928 15.7794 72.3468 15.8412C72.5008 15.903 72.6409 15.9951 72.7587 16.1123C72.8765 16.2294 72.9698 16.3691 73.0328 16.5231C73.0959 16.6771 73.1275 16.8422 73.1258 17.0086C73.1259 17.1721 73.0939 17.334 73.0316 17.4851C72.9693 17.6362 72.878 17.7735 72.7629 17.8891C72.6477 18.0048 72.5111 18.0964 72.3606 18.159C72.2101 18.2215 72.0489 18.2538 71.886 18.2538C71.7232 18.2538 71.5619 18.2215 71.4114 18.159C71.261 18.0964 71.1243 18.0048 71.0092 17.8891C70.894 17.7735 70.8027 17.6362 70.7404 17.4851C70.6782 17.334 70.6462 17.1721 70.6462 17.0086C70.6429 16.6806 70.7689 16.3644 70.9966 16.1292C71.2244 15.8939 71.5356 15.7587 71.8623 15.7527Z" fill="#333B41" stroke="#333B41" stroke-width="0.7"></path>
    <path d="M62.5598 14.6307C61.9412 14.6419 61.3521 14.898 60.9209 15.3435C60.4897 15.7889 60.2514 16.3875 60.258 17.0086C60.2491 17.3231 60.3032 17.636 60.4169 17.9292C60.5307 18.2224 60.7018 18.4898 60.9203 18.7154C61.1387 18.9411 61.4 19.1203 61.6887 19.2428C61.9774 19.3652 62.2876 19.4284 62.601 19.4284C62.9145 19.4284 63.2247 19.3652 63.5134 19.2428C63.8021 19.1203 64.0634 18.9411 64.2818 18.7154C64.5003 18.4898 64.6714 18.2224 64.7852 17.9292C64.8989 17.636 64.953 17.3231 64.9441 17.0086C64.9474 16.694 64.8879 16.3821 64.7691 16.091C64.6502 15.8 64.4745 15.5357 64.2522 15.314C64.0299 15.0924 63.7656 14.9177 63.4749 14.8003C63.1842 14.6829 62.873 14.6253 62.5598 14.6307ZM62.5792 15.7527C62.7448 15.7497 62.9092 15.78 63.0628 15.842C63.2165 15.9039 63.3562 15.9962 63.4737 16.1132C63.5912 16.2303 63.6841 16.3699 63.747 16.5237C63.8098 16.6774 63.8413 16.8424 63.8397 17.0086C63.8439 17.1745 63.815 17.3396 63.7547 17.4941C63.6944 17.6486 63.6038 17.7896 63.4884 17.9084C63.373 18.0273 63.2351 18.1216 63.0828 18.1861C62.9304 18.2506 62.7668 18.2838 62.6014 18.2838C62.4361 18.2838 62.2724 18.2506 62.1201 18.1861C61.9678 18.1216 61.8298 18.0273 61.7144 17.9084C61.599 17.7896 61.5085 17.6486 61.4482 17.4941C61.3878 17.3396 61.359 17.1745 61.3632 17.0086C61.3599 16.6805 61.4858 16.3643 61.7136 16.1291C61.9414 15.8939 62.2525 15.7586 62.5792 15.7527Z" fill="#333B41" stroke="#333B41" stroke-width="0.7"></path>
    <path d="M63.2729 28.8266C63.7217 29.4645 64.3165 29.9849 65.0073 30.3441C65.6981 30.7033 66.4647 30.891 67.2427 30.891C68.0206 30.891 68.7872 30.7033 69.478 30.3441C70.1688 29.9849 70.7636 29.4645 71.2124 28.8266C71.2945 28.7063 71.3262 28.5583 71.3005 28.4147C71.2748 28.2712 71.1939 28.1436 71.0752 28.0595C70.9565 27.9754 70.8096 27.9417 70.6663 27.9654C70.523 27.9892 70.3947 28.0685 70.3093 28.1865C69.9626 28.6792 69.5031 29.0814 68.9694 29.3588C68.4358 29.6363 67.8436 29.781 67.2427 29.781C66.6417 29.781 66.0496 29.6363 65.5159 29.3588C64.9823 29.0814 64.5228 28.6792 64.1761 28.1865C64.0906 28.0685 63.9624 27.9892 63.819 27.9654C63.6757 27.9417 63.5288 27.9754 63.4101 28.0595C63.2915 28.1436 63.2105 28.2712 63.1849 28.4147C63.1592 28.5583 63.1908 28.7063 63.2729 28.8266Z" fill="#333B41" stroke="#333B41" stroke-width="0.7"></path>
  </symbol>
  <symbol fill="none" xmlns="http://www.w3.org/2000/svg" viewBox="0 0 108 60" id="pay">
    <path d="M46.9727 25.0333C46.9179 25.0163 46.8647 24.9961 46.8136 24.9717C31.5438 19.2363 24.4351 29.939 24.4137 29.97C24.2636 30.1886 24.0431 30.3617 23.7715 30.4493L5.64128 36.3053C4.61609 36.6366 3.78259 37.2824 3.22857 38.1124C2.67661 38.9391 2.40041 39.9579 2.48656 41.0387L3.6618 55.7977C3.6886 56.1291 3.78754 56.4266 3.94995 56.6757C4.1136 56.9269 4.3465 57.1384 4.63834 57.2958C4.93349 57.4541 5.23771 57.5326 5.53491 57.5305C5.82718 57.5289 6.13017 57.4458 6.42654 57.2814L6.42737 57.283L24.7204 47.1298C24.9129 47.0195 25.1371 46.9596 25.375 46.9683C25.4203 46.9699 41.2149 47.5802 47.1092 48.6874C52.3398 49.6703 54.5584 47.7454 54.565 47.7401L54.5662 47.7417C54.6276 47.6905 54.6948 47.6442 54.7678 47.6045L72.4474 37.9756L47.8784 37.9756V37.9723C47.7696 37.9723 47.6595 37.9579 47.5499 37.9273C46.6199 37.6678 46.0016 37.0316 45.6887 36.2784C45.5061 35.8388 45.431 35.3587 45.4628 34.8956C45.4949 34.4188 45.6421 33.9474 45.9018 33.5396C46.2835 32.9401 46.8845 32.4948 47.6978 32.3712L63.5798 27.4072C64.4471 27.1362 64.9883 26.3979 65.1524 25.5885C65.2262 25.2241 65.2241 24.8453 65.1413 24.4871C65.0654 24.1578 64.9166 23.8483 64.6915 23.5918C64.1725 22.9997 63.1985 22.6684 61.6885 22.9378L48.237 25.3373V25.3353C48.0181 25.3737 47.7869 25.3539 47.5659 25.265C47.3664 25.1845 47.1694 25.1084 46.9727 25.0333ZM46.1005 22.111L46.1005 5.86386C46.1005 4.25009 46.7584 2.78381 47.8182 1.7216C48.8776 0.65939 50.3406 0 51.9511 0L102.149 0C103.76 0 105.222 0.65939 106.282 1.7216C107.342 2.78381 108 4.25009 108 5.86386V32.1118C108 33.726 107.342 35.1922 106.282 36.254C105.222 37.3162 103.76 37.9756 102.149 37.9756L77.6084 37.9756L56.0473 49.7182C55.4669 50.1558 52.3872 52.1947 46.6549 51.1176C41.416 50.1334 27.9283 49.5455 25.6268 49.4509L7.61374 59.4483L7.61497 59.4504C6.96243 59.8119 6.25877 59.9954 5.5444 59.9999C4.83498 60.0045 4.12967 59.8293 3.46971 59.4744C2.80521 59.1166 2.26933 58.6249 1.88226 58.0312C1.49353 57.4351 1.25857 56.7443 1.19839 55.9915L0.0231552 41.2325C-0.107925 39.5882 0.32283 38.0227 1.18066 36.7374C2.03642 35.455 3.31719 34.4597 4.88733 33.9524L22.6337 28.2203C24.0905 26.3136 31.7499 17.5246 46.1005 22.111ZM77.293 35.4967H77.3038L102.149 35.4967C103.076 35.4967 103.921 35.1154 104.534 34.5014C105.146 33.8875 105.527 33.0414 105.527 32.1118V13.1068L48.5738 13.1068L48.5738 22.7613L61.2635 20.4973C63.7521 20.0535 65.4987 20.7609 66.5465 21.9557C67.0494 22.5291 67.3804 23.2121 67.547 23.9351C67.6187 24.2446 67.6587 24.5623 67.669 24.882H71.3517C71.6931 24.882 71.9701 25.1597 71.9701 25.5018C71.9701 25.8439 71.6931 26.1215 71.3517 26.1215H67.5573C67.3648 27.0267 66.9307 27.8877 66.272 28.5678C66.3585 28.6744 66.4105 28.8103 66.4105 28.9582C66.4105 29.3003 66.1335 29.5779 65.7922 29.5779H64.8243C64.661 29.6502 64.4908 29.7147 64.3139 29.7696L48.3388 34.7634C48.2469 34.7919 48.155 34.8092 48.0631 34.8163C48.021 34.8249 47.9934 34.8435 47.979 34.8663C47.9493 34.9125 47.9316 34.9807 47.9262 35.06C47.92 35.1526 47.934 35.2464 47.9687 35.3294C47.9963 35.3959 48.0408 35.455 48.1018 35.4967L77.293 35.4967ZM92.9981 23.4567C93.9133 23.4567 94.7748 23.6872 95.5275 24.0938C95.8305 23.9314 96.1537 23.7963 96.4929 23.6926C96.9934 23.5393 97.5181 23.4567 98.054 23.4567C99.5285 23.4567 100.864 24.0562 101.831 25.025C102.797 25.9938 103.396 27.3324 103.396 28.8103C103.396 30.2885 102.797 31.6272 101.831 32.5964C100.864 33.5652 99.5289 34.1647 98.054 34.1647C97.5181 34.1647 96.9934 34.0821 96.4929 33.9288C96.1537 33.8247 95.8305 33.69 95.5275 33.5276C94.7748 33.9342 93.9133 34.1647 92.9981 34.1647C91.5232 34.1647 90.1876 33.5652 89.221 32.5964C88.2543 31.6276 87.6562 30.289 87.6562 28.8107C87.6562 27.3324 88.2543 25.9938 89.221 25.025C90.1876 24.0557 91.5232 23.4567 92.9981 23.4567ZM96.9962 25.2597C97.8322 26.205 98.3405 27.4485 98.3405 28.8107C98.3405 30.1729 97.8322 31.4164 96.9962 32.3617C97.3248 32.4592 97.6793 32.5117 98.054 32.5117C99.0738 32.5117 99.9972 32.0977 100.665 31.428C101.333 30.7583 101.747 29.8328 101.747 28.8103C101.747 27.7881 101.333 26.8627 100.665 26.1934C99.9972 25.5237 99.0738 25.1093 98.054 25.1093C97.6793 25.1093 97.3248 25.1622 96.9962 25.2597ZM95.61 26.1934C94.9418 25.5237 94.0184 25.1093 92.9981 25.1093C91.9783 25.1093 91.0549 25.5237 90.3867 26.1934C89.7185 26.8631 89.3051 27.7882 89.3051 28.8107C89.3051 29.8328 89.7185 30.7583 90.3867 31.428C91.0549 32.0977 91.9783 32.5121 92.9981 32.5121C94.0184 32.5121 94.9418 32.0977 95.61 31.428C96.2782 30.7583 96.6912 29.8328 96.6912 28.8107C96.6912 27.7882 96.2782 26.8631 95.61 26.1934ZM68.6039 29.5779C68.2626 29.5779 67.9856 29.3003 67.9856 28.9582C67.9856 28.6157 68.2626 28.3385 68.6039 28.3385H70.714C71.0554 28.3385 71.3324 28.6157 71.3324 28.9582C71.3324 29.3003 71.0554 29.5779 70.714 29.5779H68.6039ZM92.5942 19.0459C92.2524 19.0459 91.9758 18.7682 91.9758 18.4261C91.9758 18.084 92.2524 17.8064 92.5942 17.8064L100.553 17.8064C100.895 17.8064 101.171 18.084 101.171 18.4261C101.171 18.7682 100.895 19.0459 100.553 19.0459L92.5942 19.0459ZM74.4079 19.0459C74.0666 19.0459 73.7896 18.7682 73.7896 18.4261C73.7896 18.084 74.0666 17.8064 74.4079 17.8064L85.901 17.8064C86.2423 17.8064 86.5193 18.084 86.5193 18.4261C86.5193 18.7682 86.2423 19.0459 85.901 19.0459L74.4079 19.0459ZM50.9787 19.0459C50.6374 19.0459 50.3604 18.7682 50.3604 18.4261C50.3604 18.084 50.6374 17.8064 50.9787 17.8064L67.7564 17.8064C68.0981 17.8064 68.3747 18.084 68.3747 18.4261C68.3747 18.7682 68.0981 19.0459 67.7564 19.0459L50.9787 19.0459ZM105.527 11.4542V6.69016L48.5738 6.69016V11.4542L105.527 11.4542ZM105.424 5.03756C105.272 4.43766 104.959 3.90015 104.534 3.47419C103.921 2.86025 103.076 2.47891 102.149 2.47891L51.9511 2.47891C51.0236 2.47891 50.1794 2.86025 49.5668 3.47419C49.1418 3.90015 48.8286 4.43766 48.6764 5.03756L105.424 5.03756Z" fill="#333B41"></path>
  </symbol>
  <symbol fill="none" xmlns="http://www.w3.org/2000/svg" viewBox="0 0 87 96" id="zoo">
    <path d="M39.7487 5.26397C39.3993 4.93634 39.0498 4.69607 38.7222 4.52134C38.3945 4.36844 38.0232 4.28107 37.6082 4.28107C37.1277 4.28107 36.7782 4.39028 36.5379 4.58686C36.2977 4.78344 36.1666 5.11108 36.1666 5.54792C36.1666 5.85371 36.2977 6.13766 36.5598 6.33424C36.8219 6.55266 37.1277 6.74924 37.5208 6.94582C37.914 7.1424 38.329 7.33898 38.7658 7.5574C39.2027 7.77582 39.6177 8.01609 40.0108 8.32188C40.404 8.62767 40.7098 8.97715 40.9719 9.41399C41.234 9.85083 41.3651 10.375 41.3651 10.9866C41.3651 11.9258 41.103 12.734 40.6006 13.4111C40.0982 14.0882 39.3119 14.5251 38.3072 14.7653V16.8185H36.4069V14.8527C35.839 14.7872 35.2274 14.6343 34.594 14.3722C33.9606 14.1101 33.4145 13.7824 32.9558 13.3674L34.2227 11.4235C34.725 11.7948 35.2056 12.0787 35.6424 12.2753C36.1011 12.4719 36.5598 12.5593 37.0185 12.5593C37.5645 12.5593 37.9795 12.4501 38.2198 12.2316C38.4819 12.0132 38.6129 11.6637 38.6129 11.2051C38.6129 10.8556 38.4819 10.5716 38.2198 10.3314C37.9577 10.0911 37.6519 9.87268 37.2587 9.65425C36.8656 9.43583 36.4506 9.21741 36.0137 8.99899C35.5769 8.78057 35.1619 8.51846 34.7687 8.21267C34.3756 7.90688 34.0698 7.5574 33.8077 7.1424C33.5455 6.7274 33.4145 6.24687 33.4145 5.65713C33.4145 4.69607 33.6766 3.88791 34.2008 3.25449C34.725 2.62106 35.4677 2.20606 36.385 2.03132V0H38.2853V1.98764C38.9187 2.07501 39.4648 2.27159 39.9453 2.55554C40.4258 2.83949 40.8408 3.18896 41.234 3.60396L39.7487 5.26397Z" fill="#333B41"></path>
    <path fill-rule="evenodd" clip-rule="evenodd" d="M86.7749 76.0006L83.1812 73.7891L75.1644 88.164L79.0346 90.0991L86.7749 76.0006Z" fill="#333B41"></path>
    <path fill-rule="evenodd" clip-rule="evenodd" d="M81.2457 73.2355C71.8467 62.4543 63.5535 65.2187 52.4959 72.4062C42.8205 78.7643 35.633 74.3413 28.4455 77.3821C26.7869 78.2114 24.2989 80.1465 26.5104 82.0816C27.6162 82.9109 32.0393 83.7403 33.4215 83.4638C40.8854 81.8052 43.0969 85.1225 54.431 82.9109C51.1137 85.3989 40.3325 83.7403 33.6979 84.5696C28.4455 85.6753 19.8759 81.5287 26.7869 76.8292C23.746 75.447 20.9816 74.6177 17.6643 74.3413C14.3471 71.8533 9.09468 68.8124 6.33027 67.7067C4.11874 66.3245 -1.41007 66.8774 2.18366 70.4711C5.77739 73.7884 15.4528 81.2523 17.3879 82.358C25.1282 87.0575 32.3157 90.3748 39.7796 94.5214C39.7796 94.5214 42.2676 95.9036 47.2435 93.9686C50.8372 92.3099 66.8708 83.4638 70.741 84.846C72.9525 85.6753 74.0583 86.2282 74.0583 86.2282L81.2457 73.2355Z" stroke="#333B41" stroke-width="1.5"></path>
    <path fill-rule="evenodd" clip-rule="evenodd" d="M34.5278 72.406C35.0807 71.3003 35.6336 70.471 36.4629 70.1945C37.2922 69.9181 37.5687 70.471 38.1216 71.0238C38.6744 71.8532 38.9509 72.1296 39.7802 72.6825C40.0566 72.9589 40.6095 72.9589 40.886 72.9589L40.3331 72.6825C39.5038 72.1296 38.9509 71.5767 39.2273 70.471C39.2273 70.1945 38.9509 69.6416 39.5038 69.6416C40.0566 69.9181 40.886 70.471 41.7153 70.471C41.7153 70.471 42.5446 70.7474 42.2682 70.471C42.2682 70.1945 41.7153 69.9181 41.4388 69.6416C39.7802 68.2594 39.7802 67.983 39.7802 66.0479C40.0566 63.2835 38.9509 61.072 37.0158 59.1369C32.5927 54.7138 34.5278 48.6321 37.8451 42.8269C40.886 37.5745 43.6504 36.7452 40.6095 30.387C39.5038 27.6226 37.5687 24.8582 37.2922 23.1996C37.2922 22.6467 37.2922 22.9231 37.2922 23.1996C37.0158 24.8582 38.1216 27.3462 39.2273 29.8342C41.7153 35.363 41.1624 35.9159 37.5687 40.8918C33.6985 45.8677 30.9341 51.1201 32.5927 56.6489C33.6985 60.5191 39.2273 64.3893 36.4629 66.8772C35.0807 67.983 33.1456 70.7474 32.8692 72.406C32.5927 73.2354 32.5927 73.2354 32.3163 73.7882C32.0399 74.0647 32.3163 74.0647 32.5927 74.0647C33.9749 73.7882 33.9749 73.2354 34.5278 72.406Z" fill="#333B41"></path>
    <path d="M52.8429 46.529L53.755 46.2684L53.7981 47.2161C53.9459 50.4683 52.5534 54.3664 50.2642 57.4425C49.0772 59.0375 47.6155 60.4545 45.9547 61.4487C47.0478 61.074 48.2508 60.3838 49.4679 59.1695C52.7026 55.6792 53.5945 51.2419 54.6307 45.5536C53.6652 45.6402 52.7139 45.8564 51.737 46.1392C51.096 46.3247 50.4522 46.5364 49.786 46.757C49.7457 46.7704 49.7052 46.7838 49.6648 46.7972C49.0473 47.0018 48.4107 47.2127 47.7579 47.4089C42.6293 49.3021 39.8538 51.6595 38.8454 54.3645C38.5951 55.654 38.63 56.8192 39.0684 57.696L39.1052 57.7696L39.1251 57.8495C39.2985 58.5427 40 59.1847 40.9413 59.7019C41.9925 58.713 42.7253 57.8296 43.446 56.9124C43.2707 57.0928 43.1068 57.265 42.9519 57.428C42.8261 57.5602 42.7062 57.6863 42.5907 57.8057C42.3944 58.0085 42.2043 58.1985 42.0295 58.3497C41.8721 58.4858 41.6524 58.6584 41.3991 58.7429L41.2102 58.8059L41.0149 58.7668C40.1201 58.5879 39.4476 58.0935 39.1719 57.2664C38.9248 56.5252 39.0477 55.6546 39.3357 54.7804C39.83 52.8473 41.3457 51.3363 43.5888 50.0545C45.8467 48.7643 48.9586 47.6388 52.8429 46.529Z" stroke="#333B41" stroke-width="1.5"></path>
    <path d="M26.1344 28.3643C24.6582 27.8492 23.3723 27.4005 21.9336 27.1376C21.9829 27.3788 22.0313 27.6174 22.0792 27.8534C22.2097 28.4962 22.3363 29.1198 22.4655 29.7246C22.4297 29.2771 22.422 28.8382 22.4444 28.4123L22.4942 27.4666L23.4034 27.7318C26.7359 28.7037 29.4286 29.6903 31.4057 30.8047C33.1697 31.7989 34.4573 32.9473 35.0631 34.3665C34.2232 32.1059 32.0121 30.1686 27.6813 28.8948L27.6684 28.8911L27.6557 28.8868C27.1203 28.7083 26.6171 28.5328 26.1344 28.3643ZM25.4595 37.3306C24.8749 36.544 24.3598 35.692 23.9279 34.809C24.5337 36.2532 25.3329 37.5474 26.4881 38.7026L26.498 38.7124L26.5074 38.7226C27.1438 39.4079 27.7828 39.8995 28.3999 40.2466C27.2794 39.4579 26.2884 38.4458 25.4595 37.3306ZM35.2389 37.5153C35.6733 36.6464 35.6858 35.8128 35.2763 34.9459C35.5594 35.7323 35.5714 36.5125 35.2859 37.1786C34.9798 37.893 34.3674 38.3874 33.6036 38.5784L33.3917 38.6313L33.1845 38.5623C33.1 38.5341 33.0191 38.4969 32.943 38.4549C33.1171 38.6533 33.3004 38.8554 33.4965 39.0632L33.5163 39.0582C34.4752 38.8185 34.9986 38.4027 35.1821 37.6688L35.202 37.589L35.2389 37.5153Z" stroke="#333B41" stroke-width="1.5"></path>
    <path d="M50.5566 28.6732C50.2311 29.0618 49.8833 29.4321 49.5153 29.7769C49.6818 29.6372 49.8494 29.4842 50.0175 29.3168C50.2081 29.1065 50.3874 28.892 50.5566 28.6732ZM53.7653 19.4627C53.768 19.448 53.7707 19.4334 53.7734 19.4187C52.2418 19.7171 50.6647 20.1954 48.8887 20.8614L48.8887 20.8615L48.8776 20.8654C45.4003 22.1073 43.4897 23.5076 42.6388 25.3816C43.2182 24.192 44.2605 23.2206 45.7292 22.3769C47.4375 21.3955 49.792 20.5463 52.851 19.712L53.7653 19.4627ZM43.6887 29.1639C43.3879 29.0636 43.128 28.9102 42.9149 28.7121C43.1031 29.0573 43.3626 29.3412 43.7254 29.5207C43.8308 29.4111 43.9321 29.3035 44.03 29.1976C43.996 29.2007 43.9612 29.2024 43.9258 29.2024H43.8041L43.6887 29.1639Z" stroke="#333B41" stroke-width="1.5"></path>
  </symbol>
</svg>